<!DOCTYPE svg PUBLIC "-//W3C//DTD SVG 1.1//EN" "http://www.w3.org/Graphics/SVG/1.1/DTD/svg11.dtd">
<!-- Uploaded to: SVG Repo, www.svgrepo.com, Transformed by: SVG Repo Mixer Tools -->
<svg fill="#000000" width="215px" height="215px" viewBox="-2.4 -2.4 28.80 28.80" id="file-music-4" data-name="Flat Line" xmlns="http://www.w3.org/2000/svg" class="icon flat-line" transform="matrix(1, 0, 0, 1, 0, 0)rotate(0)">
<g id="SVGRepo_bgCarrier" stroke-width="0">
<rect x="-2.4" y="-2.4" width="28.80" height="28.80" rx="14.4" fill="#ecb341" strokewidth="0"/>
</g>
<g id="SVGRepo_tracerCarrier" stroke-linecap="round" stroke-linejoin="round"/>
<g id="SVGRepo_iconCarrier">
<path id="secondary" d="M17,5V3H6A1,1,0,0,0,5,4V9.13A9.29,9.29,0,0,1,6.5,9,9.5,9.5,0,0,1,16,18.5a9.79,9.79,0,0,1-.34,2.5H18a1,1,0,0,0,1-1V5Z" style="fill: #222224; stroke-width:1.32;"/>
<path id="primary" d="M12,16a2.9,2.9,0,0,0-3-3v6" style="fill: none; stroke: #222224; stroke-linecap: round; stroke-linejoin: round; stroke-width:1.32;"/>
<path id="primary-2" data-name="primary" d="M5,10V4A1,1,0,0,1,6,3H17l2,2V20a1,1,0,0,1-1,1H15" style="fill: none; stroke: #222224; stroke-linecap: round; stroke-linejoin: round; stroke-width:1.32;"/>
<path id="primary-3" data-name="primary" d="M9,19a2,2,0,1,1-2-2A2,2,0,0,1,9,19ZM17,3V5h2Z" style="fill: none; stroke: #222224; stroke-linecap: round; stroke-linejoin: round; stroke-width:1.32;"/>
</g>
</svg>